<?xml version="1.0" encoding="utf-8"?>
<svg xmlns="http://www.w3.org/2000/svg" viewBox="0 0 64 64" role="img" aria-label="Prime Forge logo">
  <defs>
    <linearGradient id="forge-red" x1="10" y1="8" x2="54" y2="58" gradientUnits="userSpaceOnUse">
      <stop offset="0" stop-color="#ff4a42"/>
      <stop offset="0.52" stop-color="#e52323"/>
      <stop offset="1" stop-color="#991313"/>
    </linearGradient>
    <linearGradient id="forge-dark" x1="12" y1="6" x2="52" y2="60" gradientUnits="userSpaceOnUse">
      <stop offset="0" stop-color="#22221f"/>
      <stop offset="1" stop-color="#0c0c0b"/>
    </linearGradient>
  </defs>
  <rect x="5" y="5" width="54" height="54" rx="14" fill="url(#forge-dark)"/>
  <rect x="6.5" y="6.5" width="51" height="51" rx="12.5" fill="none" stroke="url(#forge-red)" stroke-width="3"/>
  <path d="M18 44V17h17.5c6.4 0 10.8 4.1 10.8 9.8 0 5.9-4.4 9.9-10.8 9.9H26v7.3h-8zm8-14.4h8.7c2.1 0 3.5-1.1 3.5-2.8 0-1.8-1.4-2.9-3.5-2.9H26v5.7z" fill="url(#forge-red)"/>
  <path d="M31.4 47 45 17h7L38.4 47h-7z" fill="#ffffff"/>
</svg>
